<svg xmlns="http://www.w3.org/2000/svg" xmlns:xlink="http://www.w3.org/1999/xlink" width="1000" zoomAndPan="magnify" viewBox="0 0 750 749.999995" height="1000" preserveAspectRatio="xMidYMid meet" version="1.0"><defs><g/><clipPath id="d50fdd08a0"><path d="M 593 296.914062 L 611 296.914062 L 611 330 L 593 330 Z M 593 296.914062 " clip-rule="nonzero"/></clipPath><clipPath id="1bcfa5b1ba"><path d="M 557.398438 341 L 578 341 L 578 350 L 557.398438 350 Z M 557.398438 341 " clip-rule="nonzero"/></clipPath><clipPath id="77da6cd7e3"><path d="M 589 337 L 675.148438 337 L 675.148438 379 L 589 379 Z M 589 337 " clip-rule="nonzero"/></clipPath><clipPath id="8818dcb3ae"><path d="M 614 313 L 675.148438 313 L 675.148438 322 L 614 322 Z M 614 313 " clip-rule="nonzero"/></clipPath><clipPath id="f1ed119b97"><path d="M 585 382 L 647 382 L 647 394.414062 L 585 394.414062 Z M 585 382 " clip-rule="nonzero"/></clipPath></defs><path fill="#000000" d="M 667.003906 333.476562 L 589.894531 333.476562 L 589.894531 337.539062 L 667.003906 337.539062 Z M 667.003906 333.476562 " fill-opacity="1" fill-rule="nonzero"/><g clip-path="url(#d50fdd08a0)"><path fill="#000000" d="M 610.183594 299.699219 C 610.183594 298.164062 608.9375 296.914062 607.40625 296.914062 C 606.921875 296.914062 606.441406 297.039062 606.023438 297.28125 C 598.574219 301.539062 593.953125 309.519531 593.953125 318.105469 L 593.953125 329.414062 L 610.183594 329.414062 Z M 610.183594 299.699219 " fill-opacity="1" fill-rule="nonzero"/></g><g clip-path="url(#1bcfa5b1ba)"><path fill="#000000" d="M 557.425781 342.214844 C 557.425781 342.421875 557.527344 342.613281 557.699219 342.726562 L 558.566406 343.308594 C 564.292969 347.128906 570.878906 349.289062 577.71875 349.648438 L 577.71875 341.601562 L 558.039062 341.601562 C 557.699219 341.601562 557.425781 341.875 557.425781 342.214844 Z M 557.425781 342.214844 " fill-opacity="1" fill-rule="nonzero"/></g><path fill="#000000" d="M 585.835938 337.539062 L 583.804688 337.539062 C 582.683594 337.539062 581.777344 338.449219 581.777344 339.570312 L 581.777344 351.757812 C 581.777344 352.878906 582.683594 353.789062 583.804688 353.789062 L 585.835938 353.789062 Z M 585.835938 337.539062 " fill-opacity="1" fill-rule="nonzero"/><g clip-path="url(#77da6cd7e3)"><path fill="#000000" d="M 667.003906 341.601562 L 589.894531 341.601562 L 589.894531 354.898438 L 603.046875 366.421875 C 605.003906 368.132812 606.125 370.605469 606.125 373.207031 C 606.125 375.039062 605.574219 376.742188 604.632812 378.164062 L 632.730469 378.164062 C 630.09375 375.578125 628.449219 371.984375 628.449219 368.007812 C 628.449219 360.167969 634.820312 353.789062 642.652344 353.789062 L 675.121094 353.789062 L 675.121094 337.539062 L 671.0625 337.539062 C 671.0625 339.777344 669.242188 341.601562 667.003906 341.601562 Z M 667.003906 341.601562 " fill-opacity="1" fill-rule="nonzero"/></g><g clip-path="url(#8818dcb3ae)"><path fill="#000000" d="M 614.242188 313.164062 L 675.121094 313.164062 L 675.121094 321.289062 L 614.242188 321.289062 Z M 614.242188 313.164062 " fill-opacity="1" fill-rule="nonzero"/></g><g clip-path="url(#f1ed119b97)"><path fill="#000000" d="M 644.683594 382.226562 L 587.863281 382.226562 C 586.742188 382.226562 585.835938 383.136719 585.835938 384.257812 L 585.835938 392.382812 C 585.835938 393.503906 586.742188 394.414062 587.863281 394.414062 L 644.683594 394.414062 C 645.800781 394.414062 646.710938 393.503906 646.710938 392.382812 L 646.710938 384.257812 C 646.710938 383.136719 645.800781 382.226562 644.683594 382.226562 Z M 644.683594 382.226562 " fill-opacity="1" fill-rule="nonzero"/></g><g fill="#7d5ba6" fill-opacity="1"><g transform="translate(74.999999, 390.388096)"><g><path d="M 18.3125 0 L 3.84375 0 L 3.84375 -34.5 L 27.375 -34.5 C 33 -34.5 37.539062 -34.078125 41 -33.234375 C 44.457031 -32.390625 46.976562 -31.066406 48.5625 -29.265625 C 50.144531 -27.460938 50.9375 -25.113281 50.9375 -22.21875 C 50.9375 -19.332031 50.144531 -16.988281 48.5625 -15.1875 C 46.976562 -13.382812 44.457031 -12.0625 41 -11.21875 C 37.539062 -10.375 33 -9.953125 27.375 -9.953125 L 18.3125 -9.953125 Z M 18.3125 -18.46875 L 26.59375 -18.484375 C 28.894531 -18.484375 30.710938 -18.578125 32.046875 -18.765625 C 33.378906 -18.953125 34.359375 -19.210938 34.984375 -19.546875 C 35.617188 -19.878906 36.023438 -20.273438 36.203125 -20.734375 C 36.378906 -21.191406 36.46875 -21.6875 36.46875 -22.21875 C 36.46875 -22.757812 36.378906 -23.257812 36.203125 -23.71875 C 36.023438 -24.175781 35.617188 -24.570312 34.984375 -24.90625 C 34.359375 -25.238281 33.378906 -25.5 32.046875 -25.6875 C 30.710938 -25.875 28.894531 -25.96875 26.59375 -25.96875 L 18.3125 -25.96875 Z M 18.3125 -18.46875 "/></g></g><g transform="translate(127.872541, 390.388096)"><g><path d="M 18.3125 0 L 3.84375 0 L 3.84375 -34.5 L 18.3125 -34.5 Z M 18.3125 0 "/></g></g><g transform="translate(150.041019, 390.388096)"><g><path d="M 49.71875 0 L 35.046875 0 L 25.046875 -10.578125 L 15.03125 0 L 0.359375 0 L 18.3125 -17.640625 L 0.359375 -34.46875 L 15.03125 -34.46875 L 25.046875 -24.59375 L 35.046875 -34.46875 L 49.71875 -34.46875 L 31.75 -17.640625 Z M 49.71875 0 "/></g></g><g transform="translate(200.124468, 390.388096)"><g><path d="M 45.390625 0 L 3.84375 0 L 3.84375 -34.5 L 43.484375 -34.5 L 43.484375 -25.96875 L 18.3125 -25.96875 L 18.3125 -20.546875 L 39.59375 -20.546875 L 39.59375 -13.921875 L 18.3125 -13.921875 L 18.3125 -8.53125 L 45.390625 -8.53125 Z M 45.390625 0 "/></g></g><g transform="translate(247.442869, 390.388096)"><g><path d="M 44.109375 0 L 3.84375 0 L 3.84375 -34.5 L 18.3125 -34.5 L 18.3125 -8.53125 L 44.109375 -8.53125 Z M 44.109375 0 "/></g></g></g><g fill="#000000" fill-opacity="1"><g transform="translate(292.525189, 390.388096)"><g><path d="M 18.3125 0 L 3.84375 0 L 3.84375 -34.5 L 43.484375 -34.5 L 43.484375 -25.96875 L 18.3125 -25.96875 L 18.3125 -20.546875 L 39.59375 -20.546875 L 39.59375 -13.921875 L 18.3125 -13.921875 Z M 18.3125 0 "/></g></g><g transform="translate(337.944121, 390.388096)"><g><path d="M 26.078125 0.75 C 17.554688 0.75 11.285156 -1.003906 7.265625 -4.515625 C 3.703125 -7.628906 1.921875 -11.867188 1.921875 -17.234375 C 1.921875 -22.585938 3.703125 -26.820312 7.265625 -29.9375 C 11.285156 -33.4375 17.554688 -35.1875 26.078125 -35.1875 C 34.609375 -35.1875 40.882812 -33.4375 44.90625 -29.9375 C 48.46875 -26.820312 50.25 -22.585938 50.25 -17.234375 C 50.25 -11.867188 48.46875 -7.628906 44.90625 -4.515625 C 40.882812 -1.003906 34.609375 0.75 26.078125 0.75 Z M 26.078125 -8.515625 C 29.578125 -8.515625 32.144531 -9.515625 33.78125 -11.515625 C 35.09375 -13.128906 35.75 -15.035156 35.75 -17.234375 C 35.75 -19.429688 35.09375 -21.332031 33.78125 -22.9375 C 32.144531 -24.957031 29.578125 -25.96875 26.078125 -25.96875 C 22.585938 -25.96875 20.015625 -24.957031 18.359375 -22.9375 C 17.046875 -21.332031 16.390625 -19.429688 16.390625 -17.234375 C 16.390625 -15.035156 17.046875 -13.128906 18.359375 -11.515625 C 20.015625 -9.515625 22.585938 -8.515625 26.078125 -8.515625 Z M 26.078125 -8.515625 "/></g></g><g transform="translate(390.11939, 390.388096)"><g><path d="M 50.9375 0 L 37.265625 0 C 36.640625 -0.863281 36.195312 -1.96875 35.9375 -3.3125 C 35.71875 -4.351562 35.378906 -5.375 34.921875 -6.375 C 34.472656 -7.382812 33.703125 -8.21875 32.609375 -8.875 C 31.515625 -9.539062 29.882812 -9.898438 27.71875 -9.953125 L 18.3125 -9.953125 L 18.3125 0 L 3.84375 0 L 3.84375 -34.5 L 27.375 -34.5 C 33 -34.5 37.539062 -34.078125 41 -33.234375 C 44.457031 -32.390625 46.976562 -31.066406 48.5625 -29.265625 C 50.144531 -27.460938 50.9375 -25.113281 50.9375 -22.21875 C 50.9375 -19.789062 50.382812 -17.75 49.28125 -16.09375 C 48.1875 -14.445312 46.457031 -13.144531 44.09375 -12.1875 C 46.382812 -11.238281 47.867188 -10.101562 48.546875 -8.78125 C 49.234375 -7.457031 49.65625 -6.003906 49.8125 -4.421875 C 49.96875 -3.015625 50.34375 -1.539062 50.9375 0 Z M 18.3125 -18.46875 L 26.59375 -18.484375 C 28.894531 -18.484375 30.710938 -18.585938 32.046875 -18.796875 C 33.378906 -19.003906 34.359375 -19.285156 34.984375 -19.640625 C 35.617188 -20.003906 36.023438 -20.40625 36.203125 -20.84375 C 36.378906 -21.289062 36.46875 -21.75 36.46875 -22.21875 C 36.46875 -22.675781 36.378906 -23.128906 36.203125 -23.578125 C 36.023438 -24.023438 35.617188 -24.429688 34.984375 -24.796875 C 34.359375 -25.160156 33.378906 -25.445312 32.046875 -25.65625 C 30.710938 -25.863281 28.894531 -25.96875 26.59375 -25.96875 L 18.3125 -25.96875 Z M 18.3125 -18.46875 "/></g></g><g transform="translate(442.991932, 390.388096)"><g><path d="M 26.078125 0.75 C 17.554688 0.75 11.285156 -1.003906 7.265625 -4.515625 C 3.703125 -7.628906 1.921875 -11.863281 1.921875 -17.21875 C 1.921875 -22.582031 3.703125 -26.820312 7.265625 -29.9375 C 11.285156 -33.4375 17.554688 -35.1875 26.078125 -35.1875 C 30.941406 -35.1875 34.984375 -34.640625 38.203125 -33.546875 C 41.421875 -32.460938 43.945312 -30.976562 45.78125 -29.09375 C 47.613281 -27.21875 48.867188 -25.050781 49.546875 -22.59375 L 34.0625 -22.59375 C 32.445312 -24.820312 29.785156 -25.9375 26.078125 -25.9375 C 22.585938 -25.9375 20.015625 -24.9375 18.359375 -22.9375 C 17.046875 -21.3125 16.390625 -19.40625 16.390625 -17.21875 C 16.390625 -15.019531 17.046875 -13.117188 18.359375 -11.515625 C 20.015625 -9.515625 22.585938 -8.515625 26.078125 -8.515625 C 28.898438 -8.515625 31.019531 -8.757812 32.4375 -9.25 C 33.851562 -9.738281 34.894531 -10.375 35.5625 -11.15625 L 29.90625 -11.15625 L 29.90625 -17.21875 L 49.546875 -17.21875 L 49.546875 0.03125 L 43.53125 0.03125 L 42.3125 -3.3125 C 38.476562 -0.601562 33.066406 0.75 26.078125 0.75 Z M 26.078125 0.75 "/></g></g><g transform="translate(495.431684, 390.388096)"><g><path d="M 45.390625 0 L 3.84375 0 L 3.84375 -34.5 L 43.484375 -34.5 L 43.484375 -25.96875 L 18.3125 -25.96875 L 18.3125 -20.546875 L 39.59375 -20.546875 L 39.59375 -13.921875 L 18.3125 -13.921875 L 18.3125 -8.53125 L 45.390625 -8.53125 Z M 45.390625 0 "/></g></g></g></svg>