<svg xmlns="http://www.w3.org/2000/svg" xmlns:xlink="http://www.w3.org/1999/xlink" width="150" zoomAndPan="magnify" viewBox="0 0 112.5 37.5" height="50" preserveAspectRatio="xMidYMid meet" version="1.0"><defs><g/><clipPath id="95f9410f79"><path d="M 96 7.238281 L 100 7.238281 L 100 14 L 96 14 Z M 96 7.238281 " clip-rule="nonzero"/></clipPath><clipPath id="84c03d8eaa"><path d="M 89.660156 15 L 94 15 L 94 17 L 89.660156 17 Z M 89.660156 15 " clip-rule="nonzero"/></clipPath><clipPath id="65466118ca"><path d="M 95 14 L 111.511719 14 L 111.511719 23 L 95 23 Z M 95 14 " clip-rule="nonzero"/></clipPath><clipPath id="118f842dbb"><path d="M 100 10 L 111.511719 10 L 111.511719 12 L 100 12 Z M 100 10 " clip-rule="nonzero"/></clipPath><clipPath id="9bcd211f50"><path d="M 0.492188 18 L 41 18 L 41 25 L 0.492188 25 Z M 0.492188 18 " clip-rule="nonzero"/></clipPath></defs><path fill="#000000" d="M 110.328125 13.898438 L 95.785156 13.898438 L 95.785156 14.640625 L 110.332031 14.640625 Z M 110.328125 13.898438 " fill-opacity="1" fill-rule="nonzero"/><g clip-path="url(#95f9410f79)"><path fill="#000000" d="M 99.613281 7.746094 C 99.613281 7.464844 99.378906 7.238281 99.089844 7.238281 C 98.996094 7.238281 98.90625 7.261719 98.828125 7.304688 C 97.421875 8.082031 96.550781 9.535156 96.550781 11.097656 L 96.550781 13.160156 L 99.613281 13.160156 Z M 99.613281 7.746094 " fill-opacity="1" fill-rule="nonzero"/></g><g clip-path="url(#84c03d8eaa)"><path fill="#000000" d="M 89.660156 15.492188 C 89.660156 15.53125 89.679688 15.5625 89.714844 15.585938 L 89.875 15.691406 C 90.957031 16.386719 92.199219 16.78125 93.488281 16.847656 L 93.488281 15.378906 L 89.777344 15.378906 C 89.714844 15.378906 89.660156 15.429688 89.660156 15.492188 Z M 89.660156 15.492188 " fill-opacity="1" fill-rule="nonzero"/></g><path fill="#000000" d="M 95.019531 14.640625 L 94.636719 14.640625 C 94.425781 14.640625 94.253906 14.804688 94.253906 15.007812 L 94.253906 17.230469 C 94.253906 17.433594 94.425781 17.601562 94.636719 17.601562 L 95.019531 17.601562 Z M 95.019531 14.640625 " fill-opacity="1" fill-rule="nonzero"/><g clip-path="url(#65466118ca)"><path fill="#000000" d="M 110.328125 15.378906 L 95.785156 15.378906 L 95.785156 17.800781 L 98.265625 19.902344 C 98.636719 20.214844 98.847656 20.664062 98.847656 21.136719 C 98.847656 21.472656 98.742188 21.78125 98.566406 22.039062 L 103.867188 22.039062 C 103.367188 21.570312 103.058594 20.914062 103.058594 20.191406 C 103.058594 18.761719 104.261719 17.601562 105.738281 17.601562 L 111.859375 17.601562 L 111.859375 14.640625 L 111.09375 14.640625 C 111.09375 15.046875 110.753906 15.378906 110.328125 15.378906 Z M 110.328125 15.378906 " fill-opacity="1" fill-rule="nonzero"/></g><g clip-path="url(#118f842dbb)"><path fill="#000000" d="M 100.378906 10.199219 L 111.859375 10.199219 L 111.859375 11.679688 L 100.378906 11.679688 Z M 100.378906 10.199219 " fill-opacity="1" fill-rule="nonzero"/></g><path fill="#000000" d="M 106.121094 22.78125 L 95.402344 22.78125 C 95.191406 22.78125 95.019531 22.945312 95.019531 23.152344 L 95.019531 24.632812 C 95.019531 24.835938 95.191406 25 95.402344 25 L 106.121094 25 C 106.332031 25 106.503906 24.835938 106.503906 24.632812 L 106.503906 23.152344 C 106.503906 22.945312 106.332031 22.78125 106.121094 22.78125 Z M 106.121094 22.78125 " fill-opacity="1" fill-rule="nonzero"/><g clip-path="url(#9bcd211f50)"><g fill="#7d5ba6" fill-opacity="1"><g transform="translate(0.0148528, 24.60879)"><g><path d="M 3.40625 0 L 0.71875 0 L 0.71875 -6.421875 L 5.09375 -6.421875 C 6.132812 -6.421875 6.976562 -6.34375 7.625 -6.1875 C 8.269531 -6.03125 8.738281 -5.78125 9.03125 -5.4375 C 9.320312 -5.101562 9.46875 -4.664062 9.46875 -4.125 C 9.46875 -3.59375 9.320312 -3.160156 9.03125 -2.828125 C 8.738281 -2.492188 8.269531 -2.242188 7.625 -2.078125 C 6.976562 -1.921875 6.132812 -1.84375 5.09375 -1.84375 L 3.40625 -1.84375 Z M 3.40625 -3.4375 L 4.9375 -3.4375 C 5.375 -3.4375 5.710938 -3.453125 5.953125 -3.484375 C 6.203125 -3.523438 6.382812 -3.578125 6.5 -3.640625 C 6.625 -3.703125 6.703125 -3.773438 6.734375 -3.859375 C 6.765625 -3.941406 6.78125 -4.03125 6.78125 -4.125 C 6.78125 -4.226562 6.765625 -4.320312 6.734375 -4.40625 C 6.703125 -4.488281 6.625 -4.5625 6.5 -4.625 C 6.382812 -4.6875 6.203125 -4.734375 5.953125 -4.765625 C 5.710938 -4.804688 5.375 -4.828125 4.9375 -4.828125 L 3.40625 -4.828125 Z M 3.40625 -3.4375 "/></g></g><g transform="translate(9.840185, 24.60879)"><g><path d="M 3.40625 0 L 0.71875 0 L 0.71875 -6.421875 L 3.40625 -6.421875 Z M 3.40625 0 "/></g></g><g transform="translate(13.959765, 24.60879)"><g><path d="M 9.25 0 L 6.515625 0 L 4.65625 -1.96875 L 2.796875 0 L 0.0625 0 L 3.40625 -3.28125 L 0.0625 -6.40625 L 2.796875 -6.40625 L 4.65625 -4.578125 L 6.515625 -6.40625 L 9.25 -6.40625 L 5.90625 -3.28125 Z M 9.25 0 "/></g></g><g transform="translate(23.266798, 24.60879)"><g><path d="M 8.4375 0 L 0.71875 0 L 0.71875 -6.421875 L 8.09375 -6.421875 L 8.09375 -4.828125 L 3.40625 -4.828125 L 3.40625 -3.828125 L 7.359375 -3.828125 L 7.359375 -2.59375 L 3.40625 -2.59375 L 3.40625 -1.59375 L 8.4375 -1.59375 Z M 8.4375 0 "/></g></g><g transform="translate(32.060001, 24.60879)"><g><path d="M 8.203125 0 L 0.71875 0 L 0.71875 -6.421875 L 3.40625 -6.421875 L 3.40625 -1.59375 L 8.203125 -1.59375 Z M 8.203125 0 "/></g></g></g></g><g fill="#000000" fill-opacity="1"><g transform="translate(40.437672, 24.60879)"><g><path d="M 3.40625 0 L 0.71875 0 L 0.71875 -6.421875 L 8.09375 -6.421875 L 8.09375 -4.828125 L 3.40625 -4.828125 L 3.40625 -3.828125 L 7.359375 -3.828125 L 7.359375 -2.59375 L 3.40625 -2.59375 Z M 3.40625 0 "/></g></g><g transform="translate(48.877896, 24.60879)"><g><path d="M 4.84375 0.140625 C 3.257812 0.140625 2.09375 -0.1875 1.34375 -0.84375 C 0.6875 -1.414062 0.359375 -2.203125 0.359375 -3.203125 C 0.359375 -4.203125 0.6875 -4.988281 1.34375 -5.5625 C 2.09375 -6.21875 3.257812 -6.546875 4.84375 -6.546875 C 6.4375 -6.546875 7.601562 -6.21875 8.34375 -5.5625 C 9.007812 -4.988281 9.34375 -4.203125 9.34375 -3.203125 C 9.34375 -2.203125 9.007812 -1.414062 8.34375 -0.84375 C 7.601562 -0.1875 6.4375 0.140625 4.84375 0.140625 Z M 4.84375 -1.578125 C 5.5 -1.578125 5.976562 -1.765625 6.28125 -2.140625 C 6.519531 -2.441406 6.640625 -2.796875 6.640625 -3.203125 C 6.640625 -3.609375 6.519531 -3.960938 6.28125 -4.265625 C 5.976562 -4.640625 5.5 -4.828125 4.84375 -4.828125 C 4.195312 -4.828125 3.722656 -4.640625 3.421875 -4.265625 C 3.171875 -3.960938 3.046875 -3.609375 3.046875 -3.203125 C 3.046875 -2.796875 3.171875 -2.441406 3.421875 -2.140625 C 3.722656 -1.765625 4.195312 -1.578125 4.84375 -1.578125 Z M 4.84375 -1.578125 "/></g></g><g transform="translate(58.573653, 24.60879)"><g><path d="M 9.46875 0 L 6.9375 0 C 6.8125 -0.15625 6.726562 -0.359375 6.6875 -0.609375 C 6.644531 -0.804688 6.582031 -1 6.5 -1.1875 C 6.414062 -1.375 6.269531 -1.53125 6.0625 -1.65625 C 5.863281 -1.78125 5.5625 -1.84375 5.15625 -1.84375 L 3.40625 -1.84375 L 3.40625 0 L 0.71875 0 L 0.71875 -6.421875 L 5.09375 -6.421875 C 6.132812 -6.421875 6.976562 -6.34375 7.625 -6.1875 C 8.269531 -6.03125 8.738281 -5.78125 9.03125 -5.4375 C 9.320312 -5.101562 9.46875 -4.664062 9.46875 -4.125 C 9.46875 -3.675781 9.363281 -3.296875 9.15625 -2.984375 C 8.957031 -2.679688 8.640625 -2.441406 8.203125 -2.265625 C 8.628906 -2.085938 8.90625 -1.875 9.03125 -1.625 C 9.15625 -1.382812 9.234375 -1.117188 9.265625 -0.828125 C 9.296875 -0.554688 9.363281 -0.28125 9.46875 0 Z M 3.40625 -3.4375 L 4.9375 -3.4375 C 5.375 -3.4375 5.710938 -3.453125 5.953125 -3.484375 C 6.203125 -3.523438 6.382812 -3.578125 6.5 -3.640625 C 6.625 -3.710938 6.703125 -3.789062 6.734375 -3.875 C 6.765625 -3.957031 6.78125 -4.039062 6.78125 -4.125 C 6.78125 -4.21875 6.765625 -4.304688 6.734375 -4.390625 C 6.703125 -4.472656 6.625 -4.546875 6.5 -4.609375 C 6.382812 -4.679688 6.203125 -4.734375 5.953125 -4.765625 C 5.710938 -4.804688 5.375 -4.828125 4.9375 -4.828125 L 3.40625 -4.828125 Z M 3.40625 -3.4375 "/></g></g><g transform="translate(68.398985, 24.60879)"><g><path d="M 4.84375 0.140625 C 3.257812 0.140625 2.09375 -0.1875 1.34375 -0.84375 C 0.6875 -1.414062 0.359375 -2.203125 0.359375 -3.203125 C 0.359375 -4.203125 0.6875 -4.988281 1.34375 -5.5625 C 2.09375 -6.21875 3.257812 -6.546875 4.84375 -6.546875 C 5.75 -6.546875 6.5 -6.441406 7.09375 -6.234375 C 7.695312 -6.035156 8.171875 -5.757812 8.515625 -5.40625 C 8.859375 -5.0625 9.09375 -4.660156 9.21875 -4.203125 L 6.328125 -4.203125 C 6.035156 -4.617188 5.539062 -4.828125 4.84375 -4.828125 C 4.195312 -4.828125 3.722656 -4.640625 3.421875 -4.265625 C 3.171875 -3.960938 3.046875 -3.609375 3.046875 -3.203125 C 3.046875 -2.796875 3.171875 -2.441406 3.421875 -2.140625 C 3.722656 -1.765625 4.195312 -1.578125 4.84375 -1.578125 C 5.375 -1.578125 5.769531 -1.625 6.03125 -1.71875 C 6.289062 -1.8125 6.484375 -1.929688 6.609375 -2.078125 L 5.5625 -2.078125 L 5.5625 -3.203125 L 9.21875 -3.203125 L 9.21875 0 L 8.09375 0 L 7.875 -0.609375 C 7.15625 -0.109375 6.144531 0.140625 4.84375 0.140625 Z M 4.84375 0.140625 "/></g></g><g transform="translate(78.143891, 24.60879)"><g><path d="M 8.4375 0 L 0.71875 0 L 0.71875 -6.421875 L 8.09375 -6.421875 L 8.09375 -4.828125 L 3.40625 -4.828125 L 3.40625 -3.828125 L 7.359375 -3.828125 L 7.359375 -2.59375 L 3.40625 -2.59375 L 3.40625 -1.59375 L 8.4375 -1.59375 Z M 8.4375 0 "/></g></g></g></svg>