<svg xmlns="http://www.w3.org/2000/svg" xmlns:xlink="http://www.w3.org/1999/xlink" width="150" zoomAndPan="magnify" viewBox="0 0 112.5 37.5" height="50" preserveAspectRatio="xMidYMid meet" version="1.0"><defs><g/><clipPath id="4976df99e2"><path d="M 96 7.238281 L 100 7.238281 L 100 14 L 96 14 Z M 96 7.238281 " clip-rule="nonzero"/></clipPath><clipPath id="b015d6d8ef"><path d="M 89.660156 15 L 94 15 L 94 18 L 89.660156 18 Z M 89.660156 15 " clip-rule="nonzero"/></clipPath><clipPath id="a3b226bf87"><path d="M 95 14 L 111.511719 14 L 111.511719 23 L 95 23 Z M 95 14 " clip-rule="nonzero"/></clipPath><clipPath id="ce0bdf0b1f"><path d="M 100 10 L 111.511719 10 L 111.511719 12 L 100 12 Z M 100 10 " clip-rule="nonzero"/></clipPath><clipPath id="d122d24854"><path d="M 94 23 L 107 23 L 107 25 L 94 25 Z M 94 23 " clip-rule="nonzero"/></clipPath><clipPath id="aa50e81557"><path d="M 0.492188 17 L 10 17 L 10 25 L 0.492188 25 Z M 0.492188 17 " clip-rule="nonzero"/></clipPath></defs><path fill="#ffffff" d="M 109.996094 14.015625 L 95.6875 14.015625 L 95.6875 14.769531 L 109.996094 14.769531 Z M 109.996094 14.015625 " fill-opacity="1" fill-rule="nonzero"/><g clip-path="url(#4976df99e2)"><path fill="#ffffff" d="M 99.453125 7.753906 C 99.453125 7.46875 99.222656 7.238281 98.9375 7.238281 C 98.847656 7.238281 98.757812 7.261719 98.679688 7.304688 C 97.296875 8.097656 96.441406 9.574219 96.441406 11.167969 L 96.441406 13.261719 L 99.453125 13.261719 Z M 99.453125 7.753906 " fill-opacity="1" fill-rule="nonzero"/></g><g clip-path="url(#b015d6d8ef)"><path fill="#ffffff" d="M 89.660156 15.636719 C 89.660156 15.675781 89.679688 15.710938 89.710938 15.730469 L 89.875 15.839844 C 90.9375 16.546875 92.15625 16.949219 93.425781 17.015625 L 93.425781 15.523438 L 89.773438 15.523438 C 89.710938 15.523438 89.660156 15.574219 89.660156 15.636719 Z M 89.660156 15.636719 " fill-opacity="1" fill-rule="nonzero"/></g><path fill="#ffffff" d="M 94.933594 14.769531 L 94.558594 14.769531 C 94.347656 14.769531 94.179688 14.9375 94.179688 15.144531 L 94.179688 17.40625 C 94.179688 17.613281 94.347656 17.78125 94.558594 17.78125 L 94.933594 17.78125 Z M 94.933594 14.769531 " fill-opacity="1" fill-rule="nonzero"/><g clip-path="url(#a3b226bf87)"><path fill="#ffffff" d="M 109.996094 15.523438 L 95.6875 15.523438 L 95.6875 17.988281 L 98.128906 20.125 C 98.492188 20.441406 98.699219 20.898438 98.699219 21.382812 C 98.699219 21.722656 98.597656 22.039062 98.421875 22.300781 L 103.636719 22.300781 C 103.144531 21.820312 102.839844 21.15625 102.839844 20.417969 C 102.839844 18.964844 104.023438 17.78125 105.476562 17.78125 L 111.503906 17.78125 L 111.503906 14.769531 L 110.75 14.769531 C 110.75 15.183594 110.410156 15.523438 109.996094 15.523438 Z M 109.996094 15.523438 " fill-opacity="1" fill-rule="nonzero"/></g><g clip-path="url(#ce0bdf0b1f)"><path fill="#ffffff" d="M 100.207031 10.25 L 111.503906 10.25 L 111.503906 11.757812 L 100.207031 11.757812 Z M 100.207031 10.25 " fill-opacity="1" fill-rule="nonzero"/></g><g clip-path="url(#d122d24854)"><path fill="#ffffff" d="M 105.855469 23.054688 L 95.308594 23.054688 C 95.101562 23.054688 94.933594 23.222656 94.933594 23.429688 L 94.933594 24.9375 C 94.933594 25.144531 95.101562 25.3125 95.308594 25.3125 L 105.855469 25.3125 C 106.0625 25.3125 106.230469 25.144531 106.230469 24.9375 L 106.230469 23.429688 C 106.230469 23.222656 106.0625 23.054688 105.855469 23.054688 Z M 105.855469 23.054688 " fill-opacity="1" fill-rule="nonzero"/></g><g clip-path="url(#aa50e81557)"><g fill="#7d5ba6" fill-opacity="1"><g transform="translate(0.0221552, 24.244401)"><g><path d="M 3.40625 0 L 0.71875 0 L 0.71875 -6.40625 L 5.078125 -6.40625 C 6.128906 -6.40625 6.972656 -6.328125 7.609375 -6.171875 C 8.253906 -6.015625 8.722656 -5.769531 9.015625 -5.4375 C 9.304688 -5.101562 9.453125 -4.664062 9.453125 -4.125 C 9.453125 -3.59375 9.304688 -3.15625 9.015625 -2.8125 C 8.722656 -2.476562 8.253906 -2.234375 7.609375 -2.078125 C 6.972656 -1.921875 6.128906 -1.84375 5.078125 -1.84375 L 3.40625 -1.84375 Z M 3.40625 -3.421875 L 4.9375 -3.4375 C 5.363281 -3.4375 5.695312 -3.453125 5.9375 -3.484375 C 6.1875 -3.515625 6.367188 -3.5625 6.484375 -3.625 C 6.609375 -3.6875 6.6875 -3.757812 6.71875 -3.84375 C 6.75 -3.9375 6.765625 -4.03125 6.765625 -4.125 C 6.765625 -4.226562 6.75 -4.320312 6.71875 -4.40625 C 6.6875 -4.488281 6.609375 -4.5625 6.484375 -4.625 C 6.367188 -4.6875 6.1875 -4.734375 5.9375 -4.765625 C 5.695312 -4.796875 5.363281 -4.8125 4.9375 -4.8125 L 3.40625 -4.8125 Z M 3.40625 -3.421875 "/></g></g></g></g><g fill="#7d5ba6" fill-opacity="1"><g transform="translate(9.844178, 24.244401)"><g><path d="M 3.40625 0 L 0.71875 0 L 0.71875 -6.40625 L 3.40625 -6.40625 Z M 3.40625 0 "/></g></g></g><g fill="#7d5ba6" fill-opacity="1"><g transform="translate(13.962368, 24.244401)"><g><path d="M 9.234375 0 L 6.5 0 L 4.65625 -1.96875 L 2.796875 0 L 0.0625 0 L 3.40625 -3.28125 L 0.0625 -6.40625 L 2.796875 -6.40625 L 4.65625 -4.5625 L 6.5 -6.40625 L 9.234375 -6.40625 L 5.890625 -3.28125 Z M 9.234375 0 "/></g></g></g><g fill="#7d5ba6" fill-opacity="1"><g transform="translate(23.266268, 24.244401)"><g><path d="M 8.421875 0 L 0.71875 0 L 0.71875 -6.40625 L 8.078125 -6.40625 L 8.078125 -4.8125 L 3.40625 -4.8125 L 3.40625 -3.8125 L 7.34375 -3.8125 L 7.34375 -2.578125 L 3.40625 -2.578125 L 3.40625 -1.578125 L 8.421875 -1.578125 Z M 8.421875 0 "/></g></g></g><g fill="#7d5ba6" fill-opacity="1"><g transform="translate(32.056505, 24.244401)"><g><path d="M 8.1875 0 L 0.71875 0 L 0.71875 -6.40625 L 3.40625 -6.40625 L 3.40625 -1.578125 L 8.1875 -1.578125 Z M 8.1875 0 "/></g></g></g><g fill="#ffffff" fill-opacity="1"><g transform="translate(40.440276, 24.244401)"><g><path d="M 3.40625 0 L 0.71875 0 L 0.71875 -6.40625 L 8.078125 -6.40625 L 8.078125 -4.8125 L 3.40625 -4.8125 L 3.40625 -3.8125 L 7.34375 -3.8125 L 7.34375 -2.578125 L 3.40625 -2.578125 Z M 3.40625 0 "/></g></g></g><g fill="#ffffff" fill-opacity="1"><g transform="translate(48.877659, 24.244401)"><g><path d="M 4.84375 0.140625 C 3.257812 0.140625 2.09375 -0.1875 1.34375 -0.84375 C 0.6875 -1.414062 0.359375 -2.203125 0.359375 -3.203125 C 0.359375 -4.191406 0.6875 -4.976562 1.34375 -5.5625 C 2.09375 -6.207031 3.257812 -6.53125 4.84375 -6.53125 C 6.425781 -6.53125 7.59375 -6.207031 8.34375 -5.5625 C 9 -4.976562 9.328125 -4.191406 9.328125 -3.203125 C 9.328125 -2.203125 9 -1.414062 8.34375 -0.84375 C 7.59375 -0.1875 6.425781 0.140625 4.84375 0.140625 Z M 4.84375 -1.578125 C 5.488281 -1.578125 5.960938 -1.765625 6.265625 -2.140625 C 6.515625 -2.441406 6.640625 -2.796875 6.640625 -3.203125 C 6.640625 -3.609375 6.515625 -3.960938 6.265625 -4.265625 C 5.960938 -4.628906 5.488281 -4.8125 4.84375 -4.8125 C 4.195312 -4.8125 3.71875 -4.628906 3.40625 -4.265625 C 3.164062 -3.960938 3.046875 -3.609375 3.046875 -3.203125 C 3.046875 -2.796875 3.164062 -2.441406 3.40625 -2.140625 C 3.71875 -1.765625 4.195312 -1.578125 4.84375 -1.578125 Z M 4.84375 -1.578125 "/></g></g></g><g fill="#ffffff" fill-opacity="1"><g transform="translate(58.570145, 24.244401)"><g><path d="M 9.453125 0 L 6.921875 0 C 6.804688 -0.15625 6.722656 -0.359375 6.671875 -0.609375 C 6.628906 -0.804688 6.566406 -1 6.484375 -1.1875 C 6.398438 -1.375 6.253906 -1.523438 6.046875 -1.640625 C 5.847656 -1.765625 5.546875 -1.832031 5.140625 -1.84375 L 3.40625 -1.84375 L 3.40625 0 L 0.71875 0 L 0.71875 -6.40625 L 5.078125 -6.40625 C 6.128906 -6.40625 6.972656 -6.328125 7.609375 -6.171875 C 8.253906 -6.015625 8.722656 -5.769531 9.015625 -5.4375 C 9.304688 -5.101562 9.453125 -4.664062 9.453125 -4.125 C 9.453125 -3.675781 9.347656 -3.296875 9.140625 -2.984375 C 8.941406 -2.679688 8.625 -2.441406 8.1875 -2.265625 C 8.613281 -2.085938 8.890625 -1.875 9.015625 -1.625 C 9.140625 -1.382812 9.21875 -1.117188 9.25 -0.828125 C 9.28125 -0.554688 9.347656 -0.28125 9.453125 0 Z M 3.40625 -3.421875 L 4.9375 -3.4375 C 5.363281 -3.4375 5.695312 -3.453125 5.9375 -3.484375 C 6.1875 -3.523438 6.367188 -3.578125 6.484375 -3.640625 C 6.609375 -3.710938 6.6875 -3.789062 6.71875 -3.875 C 6.75 -3.957031 6.765625 -4.039062 6.765625 -4.125 C 6.765625 -4.207031 6.75 -4.289062 6.71875 -4.375 C 6.6875 -4.457031 6.609375 -4.53125 6.484375 -4.59375 C 6.367188 -4.664062 6.1875 -4.71875 5.9375 -4.75 C 5.695312 -4.789062 5.363281 -4.8125 4.9375 -4.8125 L 3.40625 -4.8125 Z M 3.40625 -3.421875 "/></g></g></g><g fill="#ffffff" fill-opacity="1"><g transform="translate(68.392168, 24.244401)"><g><path d="M 4.84375 0.140625 C 3.257812 0.140625 2.09375 -0.1875 1.34375 -0.84375 C 0.6875 -1.414062 0.359375 -2.203125 0.359375 -3.203125 C 0.359375 -4.191406 0.6875 -4.976562 1.34375 -5.5625 C 2.09375 -6.207031 3.257812 -6.53125 4.84375 -6.53125 C 5.738281 -6.53125 6.484375 -6.425781 7.078125 -6.21875 C 7.679688 -6.019531 8.15625 -5.742188 8.5 -5.390625 C 8.84375 -5.046875 9.078125 -4.648438 9.203125 -4.203125 L 6.328125 -4.203125 C 6.023438 -4.609375 5.53125 -4.8125 4.84375 -4.8125 C 4.195312 -4.8125 3.71875 -4.628906 3.40625 -4.265625 C 3.164062 -3.960938 3.046875 -3.609375 3.046875 -3.203125 C 3.046875 -2.785156 3.164062 -2.429688 3.40625 -2.140625 C 3.71875 -1.765625 4.195312 -1.578125 4.84375 -1.578125 C 5.363281 -1.578125 5.753906 -1.625 6.015625 -1.71875 C 6.285156 -1.8125 6.476562 -1.929688 6.59375 -2.078125 L 5.546875 -2.078125 L 5.546875 -3.203125 L 9.203125 -3.203125 L 9.203125 0 L 8.078125 0 L 7.859375 -0.609375 C 7.140625 -0.109375 6.132812 0.140625 4.84375 0.140625 Z M 4.84375 0.140625 "/></g></g></g><g fill="#ffffff" fill-opacity="1"><g transform="translate(78.133793, 24.244401)"><g><path d="M 8.421875 0 L 0.71875 0 L 0.71875 -6.40625 L 8.078125 -6.40625 L 8.078125 -4.8125 L 3.40625 -4.8125 L 3.40625 -3.8125 L 7.34375 -3.8125 L 7.34375 -2.578125 L 3.40625 -2.578125 L 3.40625 -1.578125 L 8.421875 -1.578125 Z M 8.421875 0 "/></g></g></g></svg>